<?xml version="1.0" encoding="utf-8"?>
<!-- Generator: Adobe Illustrator 15.1.0, SVG Export Plug-In . SVG Version: 6.00 Build 0)  -->
<!DOCTYPE svg PUBLIC "-//W3C//DTD SVG 1.1//EN" "http://www.w3.org/Graphics/SVG/1.1/DTD/svg11.dtd">
<svg version="1.1" id="Laag_1" xmlns="http://www.w3.org/2000/svg" xmlns:xlink="http://www.w3.org/1999/xlink" x="0px" y="0px"
	 width="140px" height="40px" viewBox="100 35 140 40" enable-background="new 100 35 140 40" xml:space="preserve">
<g>
	<path d="M125.775,65.675v6.7h-23.15v-34.65h7.8v27.95H125.775z"/>
	<path d="M162.775,55.025c0,2.967-0.442,5.575-1.325,7.825c-0.883,2.25-2.092,4.134-3.625,5.65
		c-1.533,1.518-3.358,2.658-5.475,3.425c-2.117,0.767-4.393,1.15-6.825,1.15c-2.367,0-4.6-0.384-6.7-1.15
		c-2.1-0.767-3.934-1.907-5.5-3.425c-1.567-1.517-2.8-3.4-3.7-5.65s-1.35-4.857-1.35-7.825c0-2.966,0.466-5.575,1.4-7.825
		c0.933-2.25,2.191-4.142,3.775-5.675c1.583-1.533,3.417-2.683,5.5-3.45c2.083-0.767,4.275-1.15,6.575-1.15
		c2.366,0,4.6,0.384,6.7,1.15c2.1,0.767,3.933,1.917,5.5,3.45c1.566,1.534,2.8,3.425,3.7,5.675S162.775,52.059,162.775,55.025z
		 M136.325,55.025c0,1.7,0.208,3.234,0.625,4.6c0.417,1.367,1.017,2.542,1.8,3.525c0.783,0.983,1.741,1.742,2.875,2.274
		c1.133,0.534,2.433,0.8,3.9,0.8c1.433,0,2.725-0.266,3.875-0.8c1.15-0.532,2.116-1.291,2.9-2.274
		c0.783-0.983,1.383-2.158,1.8-3.525c0.416-1.366,0.625-2.9,0.625-4.6s-0.209-3.241-0.625-4.625c-0.417-1.383-1.018-2.566-1.8-3.55
		c-0.784-0.983-1.75-1.742-2.9-2.275s-2.442-0.8-3.875-0.8c-1.467,0-2.767,0.275-3.9,0.825c-1.134,0.55-2.092,1.317-2.875,2.3
		c-0.784,0.984-1.384,2.167-1.8,3.55C136.533,51.833,136.325,53.358,136.325,55.025z"/>
	<path d="M186.175,43.725c-3.634,0-6.259,1.008-7.875,3.025c-1.617,2.017-2.425,4.775-2.425,8.275c0,1.7,0.199,3.243,0.6,4.625
		s1,2.574,1.801,3.574c0.799,1,1.799,1.775,3,2.325c1.199,0.55,2.6,0.825,4.199,0.825c0.867,0,1.607-0.017,2.225-0.05
		s1.158-0.101,1.625-0.2v-12.05h7.801v17.149c-0.934,0.367-2.434,0.759-4.5,1.176c-2.067,0.416-4.617,0.625-7.65,0.625
		c-2.6,0-4.959-0.4-7.074-1.2c-2.117-0.8-3.926-1.967-5.426-3.5s-2.658-3.417-3.475-5.65c-0.817-2.232-1.225-4.782-1.225-7.65
		c0-2.9,0.45-5.466,1.35-7.7c0.9-2.233,2.133-4.125,3.699-5.675c1.566-1.55,3.408-2.725,5.525-3.525s4.375-1.2,6.775-1.2
		c1.633,0,3.107,0.109,4.425,0.325c1.316,0.217,2.45,0.467,3.399,0.75c0.951,0.284,1.733,0.575,2.351,0.875
		c0.616,0.3,1.058,0.534,1.325,0.7l-2.25,6.25c-1.067-0.566-2.293-1.058-3.676-1.475C189.316,43.934,187.808,43.725,186.175,43.725z
		"/>
	<path d="M237.375,55.025c0,2.967-0.443,5.575-1.326,7.825s-2.092,4.134-3.625,5.65c-1.533,1.518-3.357,2.658-5.475,3.425
		s-4.393,1.15-6.824,1.15c-2.367,0-4.601-0.384-6.701-1.15c-2.1-0.767-3.934-1.907-5.5-3.425c-1.566-1.517-2.799-3.4-3.699-5.65
		s-1.35-4.857-1.35-7.825c0-2.966,0.466-5.575,1.399-7.825c0.933-2.25,2.191-4.142,3.774-5.675c1.584-1.533,3.417-2.683,5.5-3.45
		c2.084-0.767,4.275-1.15,6.576-1.15c2.365,0,4.6,0.384,6.699,1.15c2.1,0.767,3.934,1.917,5.5,3.45
		c1.566,1.534,2.801,3.425,3.7,5.675S237.375,52.059,237.375,55.025z M210.924,55.025c0,1.7,0.209,3.234,0.625,4.6
		c0.417,1.367,1.018,2.542,1.801,3.525s1.741,1.742,2.875,2.274c1.133,0.534,2.433,0.8,3.9,0.8c1.432,0,2.725-0.266,3.875-0.8
		c1.149-0.532,2.115-1.291,2.899-2.274c0.782-0.983,1.383-2.158,1.8-3.525c0.416-1.366,0.625-2.9,0.625-4.6
		s-0.209-3.241-0.625-4.625c-0.417-1.383-1.018-2.566-1.8-3.55c-0.784-0.983-1.75-1.742-2.899-2.275
		c-1.15-0.533-2.443-0.8-3.875-0.8c-1.468,0-2.768,0.275-3.9,0.825c-1.134,0.55-2.092,1.317-2.875,2.3
		c-0.783,0.984-1.384,2.167-1.801,3.55C211.133,51.833,210.924,53.358,210.924,55.025z"/>
</g>
</svg>
