<?xml version="1.0" encoding="utf-8"?>
<!-- Generator: Adobe Illustrator 15.1.0, SVG Export Plug-In . SVG Version: 6.00 Build 0)  -->
<!DOCTYPE svg PUBLIC "-//W3C//DTD SVG 1.1//EN" "http://www.w3.org/Graphics/SVG/1.1/DTD/svg11.dtd">
<svg version="1.1" id="Laag_1" xmlns="http://www.w3.org/2000/svg" xmlns:xlink="http://www.w3.org/1999/xlink" x="0px" y="0px"
	 width="70px" height="15px" viewBox="0 0 70 15" enable-background="new 0 0 70 15" xml:space="preserve">
<g>
	<rect x="1" fill="#FFFFFF" width="15" height="3"/>
	<rect x="1" y="6" fill="#FFFFFF" width="15" height="3"/>
	<rect x="1" y="12" fill="#FFFFFF" width="15" height="3"/>
</g>
<g>
	<path fill="#FFFFFF" d="M34.458,11.331c-0.101-0.239-0.232-0.545-0.397-0.915c-0.165-0.369-0.343-0.77-0.533-1.2
		c-0.19-0.429-0.393-0.871-0.607-1.327c-0.215-0.455-0.417-0.885-0.607-1.29c-0.19-0.405-0.368-0.768-0.533-1.087
		c-0.165-0.32-0.297-0.565-0.397-0.735c-0.11,1.18-0.2,2.458-0.27,3.833s-0.13,2.762-0.18,4.162h-1.425
		c0.04-0.9,0.085-1.808,0.135-2.723c0.05-0.915,0.107-1.814,0.172-2.7s0.135-1.748,0.21-2.587c0.075-0.84,0.158-1.635,0.248-2.385
		h1.275c0.27,0.44,0.56,0.96,0.87,1.56c0.31,0.6,0.62,1.228,0.93,1.882c0.31,0.655,0.61,1.31,0.9,1.965s0.555,1.253,0.795,1.793
		c0.24-0.54,0.505-1.138,0.795-1.793s0.59-1.31,0.9-1.965c0.31-0.655,0.619-1.282,0.93-1.882c0.31-0.6,0.6-1.12,0.87-1.56h1.274
		c0.34,3.35,0.596,6.815,0.766,10.395h-1.425c-0.051-1.4-0.11-2.787-0.181-4.162c-0.069-1.375-0.16-2.653-0.27-3.833
		c-0.101,0.17-0.232,0.415-0.397,0.735c-0.165,0.32-0.343,0.682-0.533,1.087c-0.189,0.405-0.393,0.835-0.607,1.29
		c-0.215,0.456-0.417,0.898-0.607,1.327c-0.189,0.431-0.367,0.831-0.532,1.2c-0.165,0.37-0.298,0.676-0.397,0.915H34.458z"/>
	<path fill="#FFFFFF" d="M42.333,8.887c0-0.69,0.101-1.292,0.301-1.808c0.199-0.515,0.465-0.942,0.795-1.283
		c0.33-0.34,0.71-0.595,1.14-0.765c0.43-0.17,0.87-0.255,1.32-0.255c1.05,0,1.854,0.328,2.415,0.982
		c0.56,0.655,0.84,1.653,0.84,2.993c0,0.06,0,0.138,0,0.232s-0.005,0.183-0.016,0.263h-5.34c0.061,0.81,0.295,1.425,0.705,1.845
		s1.05,0.63,1.92,0.63c0.49,0,0.902-0.043,1.237-0.128s0.588-0.167,0.758-0.247l0.195,1.17c-0.17,0.09-0.468,0.185-0.893,0.285
		c-0.425,0.1-0.907,0.149-1.447,0.149c-0.681,0-1.268-0.103-1.763-0.308c-0.495-0.204-0.902-0.487-1.223-0.847
		c-0.32-0.36-0.558-0.788-0.713-1.283C42.411,10.019,42.333,9.477,42.333,8.887z M47.688,8.122c0.01-0.63-0.147-1.148-0.473-1.553
		c-0.325-0.405-0.772-0.607-1.343-0.607c-0.32,0-0.603,0.062-0.848,0.188s-0.452,0.288-0.622,0.488c-0.17,0.2-0.303,0.43-0.397,0.69
		c-0.095,0.26-0.157,0.525-0.188,0.795H47.688z"/>
	<path fill="#FFFFFF" d="M51.153,5.196c0.319-0.08,0.745-0.165,1.274-0.255c0.53-0.09,1.141-0.135,1.83-0.135
		c0.62,0,1.135,0.087,1.545,0.262c0.41,0.175,0.737,0.42,0.982,0.735c0.245,0.315,0.418,0.692,0.518,1.132
		c0.101,0.44,0.15,0.925,0.15,1.455v4.38h-1.395v-4.08c0-0.479-0.033-0.89-0.098-1.23c-0.065-0.34-0.173-0.615-0.323-0.825
		c-0.149-0.21-0.35-0.363-0.6-0.458c-0.25-0.095-0.561-0.143-0.93-0.143c-0.15,0-0.306,0.005-0.465,0.015
		c-0.16,0.01-0.313,0.023-0.458,0.038c-0.145,0.015-0.275,0.033-0.39,0.053c-0.115,0.02-0.198,0.035-0.248,0.045v6.585h-1.395V5.196
		z"/>
	<path fill="#FFFFFF" d="M65.973,12.547c-0.32,0.08-0.742,0.165-1.268,0.255s-1.133,0.135-1.822,0.135
		c-0.601,0-1.105-0.088-1.516-0.263s-0.74-0.422-0.989-0.742c-0.251-0.32-0.431-0.697-0.54-1.133
		c-0.11-0.435-0.165-0.917-0.165-1.447v-4.38h1.395v4.08c0,0.95,0.15,1.63,0.45,2.04s0.805,0.614,1.515,0.614
		c0.15,0,0.306-0.005,0.465-0.015c0.16-0.01,0.311-0.022,0.45-0.037c0.141-0.016,0.268-0.03,0.383-0.045
		c0.115-0.016,0.197-0.033,0.247-0.053V4.972h1.396V12.547z"/>
</g>
</svg>
